<svg id="Calque_1" data-name="Calque 1" xmlns="http://www.w3.org/2000/svg" viewBox="0 0 398 129.35"><defs><style>.cls-1{fill:#fff;}.cls-2{fill:#a2c617;}.cls-3{fill:#e50046;}.cls-4{fill:#00b1eb;}.cls-5{fill:#fc0;}</style></defs><title>logo-agape</title><path class="cls-1" d="M110.38,68.79Q95.2,68.79,86,59.08t-9.2-24.24v-.19A34.21,34.21,0,0,1,86.15,10.6Q95.49.51,109.91.51a37,37,0,0,1,22.54,7.07,3.59,3.59,0,0,1,1.51,3,3.7,3.7,0,0,1-1.09,2.64,3.47,3.47,0,0,1-2.59,1.13,3.9,3.9,0,0,1-2.36-.94,29.35,29.35,0,0,0-18.3-6,23.16,23.16,0,0,0-17.92,7.92,27.53,27.53,0,0,0-7.17,19.15v.19q0,12,7.12,19.71t19,7.73a29.26,29.26,0,0,0,19.05-6.6V39.08H112a3.39,3.39,0,0,1-3.3-3.3,3.27,3.27,0,0,1,1-2.4,3.16,3.16,0,0,1,2.31-1h21.22a3.47,3.47,0,0,1,2.59,1.13,3.69,3.69,0,0,1,1.09,2.64V56.25a5.21,5.21,0,0,1-2.55,4.53,39.66,39.66,0,0,1-24,8" transform="translate(-1 -0.51)"/><path class="cls-1" d="M235.07,37.57h16.32q8.21,0,13.16-4a12.87,12.87,0,0,0,5-10.52v-.19q0-6.89-4.77-10.61t-13-3.73h-16.7Zm-7.45,26.79V5.41a3.7,3.7,0,0,1,1.08-2.64,3.46,3.46,0,0,1,2.59-1.13h21q11.22,0,18,5.61T277,22.58v.19q0,10.28-7.4,15.94t-18.53,5.66h-16v20A3.57,3.57,0,0,1,233.94,67a3.71,3.71,0,0,1-2.64,1.08A3.47,3.47,0,0,1,228.71,67a3.69,3.69,0,0,1-1.08-2.64" transform="translate(-1 -0.51)"/><path class="cls-1" d="M294.31,67.66a3.46,3.46,0,0,1-2.59-1.13,3.68,3.68,0,0,1-1.08-2.64V5.41a3.69,3.69,0,0,1,1.08-2.64,3.46,3.46,0,0,1,2.59-1.13h41a3.28,3.28,0,0,1,2.41,1,3.28,3.28,0,0,1,1,2.4,3.28,3.28,0,0,1-1,2.4,3.28,3.28,0,0,1-2.41,1H298.08V31h33a3.2,3.2,0,0,1,2.4,1,3.33,3.33,0,0,1,1,2.36,3.38,3.38,0,0,1-3.39,3.4h-33V60.87h37.73a3.4,3.4,0,1,1,0,6.79Z" transform="translate(-1 -0.51)"/><path class="cls-1" d="M376.46,68.6a39.08,39.08,0,0,1-25-8.87A3.17,3.17,0,0,1,350,56.91a3.62,3.62,0,0,1,1-2.6,3.4,3.4,0,0,1,2.55-1.08,3.05,3.05,0,0,1,2.26.85,31.42,31.42,0,0,0,20.85,7.83q6.6,0,10.66-3.16a9.8,9.8,0,0,0,4.06-8.07V50.5a9.22,9.22,0,0,0-3.59-7.64Q384.29,40,374.29,38q-11.69-2.55-16.93-6.84T352.12,18.9v-.19a16.08,16.08,0,0,1,6.13-12.92Q364.39.7,373.82.7a35.11,35.11,0,0,1,21,6.51,3.68,3.68,0,0,1,1.6,3,3.54,3.54,0,0,1-3.58,3.59,3.67,3.67,0,0,1-2.17-.66,28.5,28.5,0,0,0-17.07-5.75q-6.32,0-10.19,3.06A9.34,9.34,0,0,0,359.57,18v.19A9.18,9.18,0,0,0,363.3,26Q367,28.8,377.5,31.07q11.22,2.45,16.36,6.84A14.76,14.76,0,0,1,399,49.74v.19a16.59,16.59,0,0,1-6.32,13.54q-6.32,5.14-16.22,5.14" transform="translate(-1 -0.51)"/><path class="cls-1" d="M21.44,43.42H14L5.12,62.76a4.38,4.38,0,0,0-.47,2A3.39,3.39,0,0,0,8,68.13a3.64,3.64,0,0,0,3.58-2.55l6.89-15.37H54.74L61.62,65.4q1.23,2.73,3.68,2.73a3.54,3.54,0,0,0,3.58-3.58,5.1,5.1,0,0,0-.47-1.89L59.6,43.42H21.44Z" transform="translate(-1 -0.51)"/><path class="cls-1" d="M36.63,9.66,48.81,36.75h7.73L41.63,4.18A4.68,4.68,0,0,0,37,.88h-.38a5,5,0,0,0-4.72,3.3L17,36.75h7.42Z" transform="translate(-1 -0.51)"/><path class="cls-1" d="M165.94,43.42h-7.48l-8.84,19.34a4.38,4.38,0,0,0-.47,2,3.38,3.38,0,0,0,3.4,3.4,3.65,3.65,0,0,0,3.58-2.55L163,50.21h36.22l6.88,15.19q1.23,2.73,3.68,2.73a3.54,3.54,0,0,0,3.58-3.58,5.1,5.1,0,0,0-.47-1.89l-8.81-19.24H165.94Z" transform="translate(-1 -0.51)"/><path class="cls-1" d="M181.12,9.66l12.19,27.09H201L186.12,4.18A4.69,4.69,0,0,0,181.5.88h-.38a5,5,0,0,0-4.72,3.3l-14.9,32.57h7.43Z" transform="translate(-1 -0.51)"/><path class="cls-1" d="M39.84,119.13h6.49A6.21,6.21,0,0,0,50.26,118a3.82,3.82,0,0,0,1.51-3.17v-.06a3.65,3.65,0,0,0-1.43-3.07,6.38,6.38,0,0,0-4-1.1H39.84Zm-2.39,9.3V109.55a1.17,1.17,0,0,1,.35-.85,1.11,1.11,0,0,1,.83-.36h7.91a8.13,8.13,0,0,1,6,2.11,5.65,5.65,0,0,1,1.63,4.17v.06a5.6,5.6,0,0,1-1.53,4.08,7.47,7.47,0,0,1-4.12,2.05l5.26,6.77a1.36,1.36,0,0,1,.39.88,1.09,1.09,0,0,1-.38.83,1.2,1.2,0,0,1-.83.35,1.39,1.39,0,0,1-1.12-.63l-6-7.73H39.84v7.16a1.14,1.14,0,0,1-.36.86,1.18,1.18,0,0,1-.85.35,1.12,1.12,0,0,1-.83-.36,1.18,1.18,0,0,1-.35-.85" transform="translate(-1 -0.51)"/><path class="cls-1" d="M68.65,129.49a1.11,1.11,0,0,1-.83-.36,1.18,1.18,0,0,1-.35-.85V109.55a1.17,1.17,0,0,1,.35-.85,1.11,1.11,0,0,1,.83-.36H81.79a1.09,1.09,0,1,1,0,2.17H69.86v7.22H80.43a1,1,0,0,1,.77.33,1.07,1.07,0,0,1,.32.76,1.09,1.09,0,0,1-1.09,1.09H69.86v7.4H81.94a1.09,1.09,0,1,1,0,2.17Z" transform="translate(-1 -0.51)"/><path class="cls-1" d="M103.15,129.79a12.51,12.51,0,0,1-8-2.84,1,1,0,0,1-.45-.9,1.17,1.17,0,0,1,.33-.83,1.1,1.1,0,0,1,.82-.35,1,1,0,0,1,.72.27,10.06,10.06,0,0,0,6.68,2.51,5.39,5.39,0,0,0,3.41-1,3.13,3.13,0,0,0,1.3-2.58V124a3,3,0,0,0-1.15-2.45,11.26,11.26,0,0,0-4.35-1.57A13.09,13.09,0,0,1,97,117.78a4.77,4.77,0,0,1-1.68-3.91v-.06a5.14,5.14,0,0,1,2-4.14,7.54,7.54,0,0,1,5-1.63,11.25,11.25,0,0,1,6.74,2.08,1.18,1.18,0,0,1,.51,1,1.13,1.13,0,0,1-1.15,1.15,1.18,1.18,0,0,1-.69-.21,9.15,9.15,0,0,0-5.47-1.84,5.09,5.09,0,0,0-3.26,1,3,3,0,0,0-1.24,2.43v.06a3,3,0,0,0,1.19,2.48,12.54,12.54,0,0,0,4.55,1.63,12.12,12.12,0,0,1,5.24,2.19,4.72,4.72,0,0,1,1.65,3.79v.06a5.32,5.32,0,0,1-2,4.33,8,8,0,0,1-5.2,1.65" transform="translate(-1 -0.51)"/><path class="cls-1" d="M128.55,128.43V110.55h-6.13a1.1,1.1,0,0,1-.79-.32,1,1,0,0,1-.33-.77,1.06,1.06,0,0,1,.33-.78,1.08,1.08,0,0,1,.79-.33H137.1a1.14,1.14,0,0,1,1.12,1.12,1,1,0,0,1-.33.77,1.1,1.1,0,0,1-.79.32H131v17.88a1.14,1.14,0,0,1-.36.86,1.2,1.2,0,0,1-1.69,0,1.13,1.13,0,0,1-.36-.86" transform="translate(-1 -0.51)"/><path class="cls-1" d="M152,121.73h9.73l-4.86-10.81Zm-5.38,6.82a1.4,1.4,0,0,1,.15-.63l8.58-18.76a1.59,1.59,0,0,1,1.51-1.06H157a1.5,1.5,0,0,1,1.48,1.06l8.58,18.73a1.64,1.64,0,0,1,.15.6,1.13,1.13,0,0,1-1.15,1.15,1.26,1.26,0,0,1-1.18-.87l-2.2-4.86h-11.6l-2.2,4.92a1.17,1.17,0,0,1-1.15.81,1.08,1.08,0,0,1-1.09-1.09" transform="translate(-1 -0.51)"/><path class="cls-1" d="M187.78,129.82a8.62,8.62,0,0,1-6.4-2.4,9.19,9.19,0,0,1-2.39-6.78V109.4a1.19,1.19,0,0,1,.35-.85,1.11,1.11,0,0,1,.83-.36,1.19,1.19,0,0,1,1.21,1.21v11.09a7.47,7.47,0,0,0,1.72,5.25,7,7,0,0,0,9.42.09,7.27,7.27,0,0,0,1.69-5.2V109.4a1.14,1.14,0,0,1,.36-.86,1.19,1.19,0,0,1,.85-.35,1.12,1.12,0,0,1,.83.36,1.19,1.19,0,0,1,.35.85v11.06q0,4.53-2.39,6.95a8.63,8.63,0,0,1-6.43,2.42" transform="translate(-1 -0.51)"/><path class="cls-1" d="M212.82,119.13h6.49a6.21,6.21,0,0,0,3.93-1.18,3.82,3.82,0,0,0,1.51-3.17v-.06a3.65,3.65,0,0,0-1.43-3.07,6.38,6.38,0,0,0-4-1.1h-6.52Zm-2.39,9.3V109.55a1.17,1.17,0,0,1,.35-.85,1.11,1.11,0,0,1,.83-.36h7.91a8.13,8.13,0,0,1,6,2.11,5.65,5.65,0,0,1,1.63,4.17v.06a5.6,5.6,0,0,1-1.53,4.08,7.47,7.47,0,0,1-4.12,2.05l5.26,6.77a1.36,1.36,0,0,1,.39.88,1.09,1.09,0,0,1-.38.83,1.2,1.2,0,0,1-.83.35,1.39,1.39,0,0,1-1.12-.63l-6-7.73h-6.07v7.16a1.14,1.14,0,0,1-.36.86,1.18,1.18,0,0,1-.85.35,1.12,1.12,0,0,1-.83-.36,1.18,1.18,0,0,1-.35-.85" transform="translate(-1 -0.51)"/><path class="cls-1" d="M244.38,121.73h9.73l-4.86-10.81ZM239,128.55a1.4,1.4,0,0,1,.15-.63l8.58-18.76a1.59,1.59,0,0,1,1.51-1.06h.12a1.5,1.5,0,0,1,1.48,1.06l8.58,18.73a1.64,1.64,0,0,1,.15.6,1.13,1.13,0,0,1-1.15,1.15,1.26,1.26,0,0,1-1.18-.87L255,123.9h-11.6l-2.2,4.92a1.17,1.17,0,0,1-1.15.81,1.08,1.08,0,0,1-1.09-1.09" transform="translate(-1 -0.51)"/><path class="cls-1" d="M275.31,128.43V110.55h-6.13a1.1,1.1,0,0,1-.79-.32,1,1,0,0,1-.33-.77,1.06,1.06,0,0,1,.33-.78,1.08,1.08,0,0,1,.79-.33h14.68a1.14,1.14,0,0,1,1.12,1.12,1,1,0,0,1-.33.77,1.1,1.1,0,0,1-.79.32h-6.13v17.88a1.14,1.14,0,0,1-.36.86,1.2,1.2,0,0,1-1.69,0,1.13,1.13,0,0,1-.36-.86" transform="translate(-1 -0.51)"/><path class="cls-1" d="M297.69,128.43v-19a1.18,1.18,0,0,1,.35-.85,1.12,1.12,0,0,1,.83-.36,1.19,1.19,0,0,1,1.21,1.21v19a1.19,1.19,0,0,1-1.21,1.21,1.12,1.12,0,0,1-.83-.36,1.18,1.18,0,0,1-.35-.85" transform="translate(-1 -0.51)"/><path class="cls-1" d="M318.37,125.11a8.28,8.28,0,0,0,11.9,0,8.69,8.69,0,0,0,2.34-6.16v-.06a8.74,8.74,0,0,0-2.37-6.19,8.28,8.28,0,0,0-11.9,0,8.69,8.69,0,0,0-2.34,6.16v.06a8.73,8.73,0,0,0,2.37,6.19M332,126.63a11,11,0,0,1-15.49,0,10.76,10.76,0,0,1-3-7.69v-.06a10.81,10.81,0,0,1,3.05-7.72,11,11,0,0,1,15.5,0,10.78,10.78,0,0,1,3,7.69v.06a10.81,10.81,0,0,1-3.05,7.72" transform="translate(-1 -0.51)"/><path class="cls-1" d="M348.32,128.46v-19a1.19,1.19,0,0,1,1.18-1.18h.33a1.54,1.54,0,0,1,1.21.69l12.84,16.37V109.37a1.19,1.19,0,0,1,1.18-1.18,1.09,1.09,0,0,1,.82.35,1.16,1.16,0,0,1,.33.83v19.09a1.12,1.12,0,0,1-.3.8,1,1,0,0,1-.79.32H365a1.74,1.74,0,0,1-1.24-.72l-13.11-16.76v16.37a1.19,1.19,0,0,1-1.18,1.18,1.08,1.08,0,0,1-.82-.35,1.15,1.15,0,0,1-.33-.83" transform="translate(-1 -0.51)"/><rect class="cls-2" x="305.69" y="83.69" width="91.03" height="8.39"/><rect class="cls-3" x="203.8" y="83.69" width="91.03" height="8.39"/><rect class="cls-4" x="101.9" y="83.69" width="91.03" height="8.39"/><rect class="cls-5" y="83.69" width="91.03" height="8.39"/></svg>